#!OML:ASF H:\Punching\Project 1\Capture day 1\Session 1\female.ASF
:FULLY-SPECIFIED
:DEGREES
3077
root 9.73085 15.7372 9.62177 -168.419 36.9414 -181.372
lowerback -5.6402 -0.165228 4.87971
upperback -7.47921 0.141992 -0.681334
thorax -4.62495 0.0161834 -3.45709
lowerneck -1.23844 10.0571 20.7296
upperneck 32.0771 23.8919 -17.6555
head 16.7078 12.8844 -6.70517
rclavicle -9.81499e-015 -1.80894e-014
rhumerus -42.8179 -14.3176 -45.3752
rradius 20.7091
rwrist 19.1898
rhand -15.4368 -7.44391
rfingers 7.12502
rthumb 10.7434 -37.1492
lclavicle -9.81499e-015 -1.80894e-014
lhumerus -44.4267 6.69117 68.4527
lradius 40.9391
lwrist -13.6051
lhand -7.48075 13.4548
lfingers 7.12502
lthumb 18.4084 42.6037
rfemur -12.3303 0.161054 23.8361
rtibia 22.8375
rfoot -22.7608 -29.5599
rtoes 14.127
lfemur -28.9874 1.92529 -23.3201
ltibia 37.0336
lfoot -19.2658 19.5303
ltoes 1.58536
3078
root 9.73993 15.7313 9.62642 -168.321 35.5053 -181.249
lowerback -5.74075 -0.243774 4.78652
upperback -7.5398 0.0573538 -0.53537
thorax -4.63951 -0.0111238 -3.25417
lowerneck -1.10263 9.94254 20.5604
upperneck 32.0518 23.8955 -17.7154
head 16.6439 12.9072 -6.71038
rclavicle -4.78077e-014 -2.90226e-014
rhumerus -42.6462 -14.0316 -45.1613
rradius 20.7359
rwrist 19.0607
rhand -15.5592 -7.56091
rfingers 7.12502
rthumb 10.6254 -37.2723
lclavicle -4.78077e-014 -2.90226e-014
lhumerus -44.713 7.12691 68.2635
lradius 40.73
lwrist -13.5607
lhand -7.35235 13.6468
lfingers 7.12502
lthumb 18.5319 42.7841
rfemur -12.066 -0.269688 24.1866
rtibia 22.6116
rfoot -23.1563 -30.3037
rtoes 14.6307
lfemur -29.1213 2.31693 -23.3729
ltibia 37.0639
lfoot -19.5767 20.4494
ltoes 2.28895
3079
root 9.74827 15.7257 9.62927 -168.208 34.0883 -181.112
lowerback -5.84671 -0.303963 4.71352
upperback -7.60216 -0.00275262 -0.402866
thorax -4.65062 -0.0270014 -3.07654
lowerneck -1.00023 9.81671 20.4101
upperneck 32.0349 23.8712 -17.7755
head 16.5874 12.918 -6.72335
rclavicle -3.80176e-015 2.70347e-014
rhumerus -42.5063 -13.7986 -44.9582
rradius 20.7712
rwrist 18.9453
rhand -15.6815 -7.67115
rfingers 7.12502
rthumb 10.5074 -37.3885
lclavicle -3.80176e-015 2.70347e-014
lhumerus -44.9962 7.5169 68.0666
lradius 40.5115
lwrist -13.5178
lhand -7.26702 13.8497
lfingers 7.12502
lthumb 18.614 42.9792
rfemur -11.8052 -0.694926 24.5452
rtibia 22.354
rfoot -23.5455 -31.024
rtoes 15.1269
lfemur -29.2769 2.7052 -23.4134
ltibia 37.0888
lfoot -19.9246 21.4344
ltoes 3.02596
3080
root 9.75569 15.7205 9.63012 -168.085 32.6993 -180.966
lowerback -5.9577 -0.325844 4.67305
upperback -7.65604 -0.0144279 -0.310074
thorax -4.64617 -0.0210565 -2.95788
lowerneck -0.969002 9.67686 20.3033
upperneck 32.0421 23.7928 -17.8133
head 16.5466 12.9055 -6.74197
rclavicle -3.95581e-014 -3.81667e-014
rhumerus -42.4376 -13.6706 -44.7638
rradius 20.8234
rwrist 18.8358
rhand -15.7921 -7.75696
rfingers 7.12502
rthumb 10.4007 -37.4797
lclavicle -3.95581e-014 -3.81667e-014
lhumerus -45.2335 7.79991 67.8681
lradius 40.2749
lwrist -13.49
lhand -7.23508 14.0496
lfingers 7.12502
lthumb 18.6447 43.1761
rfemur -11.5444 -1.09901 24.905
rtibia 22.0693
rfoot -23.9391 -31.7208
rtoes 15.6346
lfemur -29.447 3.08456 -23.447
ltibia 37.1063
lfoot -20.3168 22.4795
ltoes 3.79949
3081
root 9.76192 15.7154 9.62893 -167.962 31.333 -180.824
lowerback -6.07423 -0.299979 4.6661
upperback -7.69342 0.0327003 -0.278216
thorax -4.61688 0.0109817 -2.9204
lowerneck -1.02766 9.52382 20.2697
upperneck 32.0697 23.6475 -17.8283
head 16.5248 12.8643 -6.77243
rclavicle -1.80149e-014 1.31198e-014
rhumerus -42.4588 -13.7086 -44.5718
rradius 20.8866
rwrist 18.7423
rhand -15.8887 -7.81666
rfingers 7.12502
rthumb 10.3075 -37.5441
lclavicle -1.80149e-014 1.31198e-014
lhumerus -45.3886 7.92666 67.6795
lradius 40.0058
lwrist -13.4828
lhand -7.27749 14.2231
lfingers 7.12502
lthumb 18.6039 43.3535
rfemur -11.2851 -1.48002 25.2531
rtibia 21.7673
rfoot -24.3483 -32.3976
rtoes 16.1542
lfemur -29.6245 3.44422 -23.488
ltibia 37.1095
lfoot -20.751 23.5632
ltoes 4.60577
3082
root 9.76695 15.7104 9.62587 -167.839 29.9915 -180.683
lowerback -6.19036 -0.259096 4.67217
upperback -7.71851 0.0973888 -0.263614
thorax -4.57356 0.0506122 -2.90762
lowerneck -1.12376 9.37651 20.2562
upperneck 32.0836 23.4889 -17.8488
head 16.5051 12.8137 -6.8085
rclavicle -4.03533e-014 -5.96354e-015
rhumerus -42.4784 -13.8028 -44.4202
rradius 20.955
rwrist 18.6177
rhand -15.9959 -7.87198
rfingers 7.12502
rthumb 10.2041 -37.6045
lclavicle -4.03533e-014 -5.96354e-015
lhumerus -45.519 8.00568 67.493
lradius 39.7059
lwrist -13.5223
lhand -7.3797 14.3674
lfingers 7.12502
lthumb 18.5056 43.5072
rfemur -11.0268 -1.82016 25.5937
rtibia 21.4529
rfoot -24.7803 -33.0691
rtoes 16.6908
lfemur -29.8045 3.77987 -23.5314
ltibia 37.0949
lfoot -21.2273 24.6615
ltoes 5.47241
3083
root 9.77062 15.7055 9.62099 -167.726 28.6719 -180.558
lowerback -6.30549 -0.223163 4.67078
upperback -7.74118 0.155448 -0.248955
thorax -4.52874 0.0873115 -2.89052
lowerneck -1.21507 9.23528 20.2318
upperneck 32.0752 23.3397 -17.887
head 16.4771 12.7639 -6.84792
rclavicle 4.98453e-014 -3.61788e-014
rhumerus -42.4653 -13.8772 -44.325
rradius 21.0307
rwrist 18.4391
rhand -16.0993 -7.92096
rfingers 7.12502
rthumb 10.1043 -37.6584
lclavicle 4.98453e-014 -3.61788e-014
lhumerus -45.6707 8.10264 67.286
lradius 39.3753
lwrist -13.6052
lhand -7.4987 14.4493
lfingers 7.12502
lthumb 18.3911 43.5999
rfemur -10.772 -2.1277 25.9113
rtibia 21.1376
rfoot -25.2386 -33.7367
rtoes 17.2299
lfemur -29.9806 4.09365 -23.5967
ltibia 37.0576
lfoot -21.6793 25.7549
ltoes 6.27332
3084
root 9.77298 15.7005 9.61459 -167.617 27.3768 -180.435
lowerback -6.4163 -0.185678 4.67656
upperback -7.76016 0.215011 -0.236034
thorax -4.48245 0.124271 -2.87902
lowerneck -1.32441 9.09865 20.1982
upperneck 32.0631 23.1952 -17.9331
head 16.4533 12.7125 -6.88674
rclavicle 3.70236e-015 -3.97569e-015
rhumerus -42.4274 -13.9589 -44.2743
rradius 21.1078
rwrist 18.2257
rhand -16.2196 -7.99998
rfingers 7.12502
rthumb 9.9883 -37.743
lclavicle 3.70236e-015 -3.97569e-015
lhumerus -45.8285 8.20611 67.0586
lradius 39.0167
lwrist -13.7233
lhand -7.60656 14.5082
lfingers 7.12502
lthumb 18.2874 43.6686
rfemur -10.5231 -2.39384 26.2216
rtibia 20.8255
rfoot -25.7212 -34.4086
rtoes 17.7626
lfemur -30.1524 4.3869 -23.6692
ltibia 36.9982
lfoot -22.1689 26.8092
ltoes 7.21323
3085
root 9.77391 15.6955 9.6071 -167.513 26.1055 -180.325
lowerback -6.51681 -0.152699 4.67294
upperback -7.77949 0.269308 -0.221003
thorax -4.44267 0.158926 -2.86004
lowerneck -1.4469 8.96902 20.1555
upperneck 32.0413 23.0623 -17.9955
head 16.4329 12.6623 -6.92735
rclavicle -2.63638e-014 -1.43125e-014
rhumerus -42.355 -14.02 -44.2836
rradius 21.1924
rwrist 17.9641
rhand -16.3622 -8.13215
rfingers 7.12502
rthumb 9.85072 -37.8817
lclavicle -2.63638e-014 -1.43125e-014
lhumerus -45.9958 8.33854 66.8003
lradius 38.6226
lwrist -13.8889
lhand -7.6959 14.5206
lfingers 7.12502
lthumb 18.2014 43.689
rfemur -10.2905 -2.64001 26.5157
rtibia 20.5237
rfoot -26.2193 -35.0739
rtoes 18.2773
lfemur -30.3231 4.6598 -23.7603
ltibia 36.9164
lfoot -22.6444 27.812
ltoes 8.17951
